<svg id="Слой_1" data-name="Слой 1" xmlns="http://www.w3.org/2000/svg" viewBox="0 0 27 26.73"><defs><style>.cls-1{fill:#2a69a6;}</style></defs><title>Settings(bg)</title><path class="cls-1" d="M9.74,17.57a6.49,6.49,0,1,1,6.48-6.49,6.49,6.49,0,0,1-6.48,6.49Zm0-10.82a4.33,4.33,0,0,0,0,8.66,4.33,4.33,0,0,0,0-8.66ZM6.86,24a.85.85,0,0,1-.23,0,13.46,13.46,0,0,1-5.42-2.61A1.06,1.06,0,0,1,1,19.88H1l.42-.54A11.65,11.65,0,0,1-.48,16.91l-.62.29a1.07,1.07,0,0,1-1.44-.49h0a13.35,13.35,0,0,1-1.35-5.86A1.08,1.08,0,0,1-2.81,9.76h.67a11.76,11.76,0,0,1,.7-3l-.62-.3A1.07,1.07,0,0,1-2.57,5h0A13.71,13.71,0,0,1,1.17.26,1.08,1.08,0,0,1,2.68.43L3.11,1A11.7,11.7,0,0,1,5.91-.4l-.15-.67a1.08,1.08,0,0,1,.81-1.29,13.65,13.65,0,0,1,6,0,1.08,1.08,0,0,1,.82,1.29l-.15.66A12.12,12.12,0,0,1,16.05.92l.43-.53A1.07,1.07,0,0,1,18,.21h0A13.51,13.51,0,0,1,21.75,4.9a1.07,1.07,0,0,1-.49,1.44l-.62.3a11.58,11.58,0,0,1,.72,3.05H22a1.07,1.07,0,0,1,1.09,1.06v0a13.53,13.53,0,0,1-1.33,5.91,1.12,1.12,0,0,1-.62.55,1,1,0,0,1-.82-.05l-.62-.29a12.32,12.32,0,0,1-1.94,2.44l.43.53A1.08,1.08,0,0,1,18,21.38,13.48,13.48,0,0,1,12.62,24a1.07,1.07,0,0,1-1.29-.79v0l-.15-.66a11.57,11.57,0,0,1-3.11,0l-.15.66A1.1,1.1,0,0,1,6.86,24ZM3.43,20.34A11.78,11.78,0,0,0,6.06,21.6L6.19,21a1.08,1.08,0,0,1,1.29-.82,9.38,9.38,0,0,0,4.28,0,1.06,1.06,0,0,1,1.29.8h0l.13.56a10.93,10.93,0,0,0,2.62-1.27l-.36-.45a1.08,1.08,0,0,1,.17-1.52A9.62,9.62,0,0,0,18.29,15a1.08,1.08,0,0,1,1.44-.5h0l.53.25a11.26,11.26,0,0,0,.64-2.87h-.56a1.28,1.28,0,0,1-.77-.31,1.1,1.1,0,0,1-.32-.77,9.51,9.51,0,0,0-1-4.19,1.08,1.08,0,0,1,.5-1.45l.52-.25a11.17,11.17,0,0,0-1.83-2.28l-.35.45a1.08,1.08,0,0,1-1.52.18h0A9.6,9.6,0,0,0,11.73,1.4,1.08,1.08,0,0,1,10.91.11L11-.45a11.34,11.34,0,0,0-2.91,0l.13.56a1.09,1.09,0,0,1-.81,1.3A9.72,9.72,0,0,0,3.59,3.28a1.08,1.08,0,0,1-1.52-.16h0l-.36-.45A11.35,11.35,0,0,0-.1,5l.52.26A1.08,1.08,0,0,1,.93,6.65a9.54,9.54,0,0,0-1,4.16A1.1,1.1,0,0,1-1.1,11.92h-.58A11.4,11.4,0,0,0-1,14.76l.52-.25A1.07,1.07,0,0,1,.94,15a9.82,9.82,0,0,0,2.68,3.35,1.09,1.09,0,0,1,.17,1.52h0l-.36.46Z" transform="translate(3.89 2.71)"/></svg>