<svg id="Слой_1" data-name="Слой 1" xmlns="http://www.w3.org/2000/svg" viewBox="0 0 22.82 31"><defs><style>.cls-1{fill:#fff;}</style></defs><title>Tablet</title><path class="cls-1" d="M16.14,27H3.19A5,5,0,0,1-1.75,21.9V1.15A5,5,0,0,1,3.19-4h13a5,5,0,0,1,4.93,5.12V21.9A5,5,0,0,1,16.14,27ZM3.19-1.89a3,3,0,0,0-2.94,3V21.9A3,3,0,0,0,3.19,25h13a3,3,0,0,0,2.93-3.05V1.15a3,3,0,0,0-2.93-3ZM9.66,23.76a1,1,0,1,1,1-1A1,1,0,0,1,9.66,23.76Zm1-22.1h-2a1,1,0,0,1-1-1,1,1,0,0,1,1-1h2a1,1,0,0,1,1,1A1,1,0,0,1,10.66,1.66Z" transform="translate(1.75 3.97)"/></svg>